<svg xmlns="http://www.w3.org/2000/svg" width="100%" viewBox="0 0 89 32" fill="none" class="logo-svg"><g clip-path="url(#clip0_2340_7731)"><path d="M0 0H14.05C17.4305 0 20.0219 0.831801 21.6428 2.28212C23.3544 3.81775 24.1436 5.7053 24.1436 8.16338C24.1436 11.368 22.1654 13.4315 19.2274 14.4392V14.5725C22.6932 15.5803 25.066 18.4809 25.066 22.3413C25.066 25.2846 24.1436 27.3001 22.2987 28.8838C20.4964 30.4621 17.7344 31.3845 14.3966 31.3845H0V0ZM13.2555 12.6423C16.0228 12.6423 17.9104 11.3253 17.9104 8.86722C17.9104 6.54244 16.1988 5.17743 13.3888 5.17743H6.36648V12.6423H13.2555ZM6.36648 26.1218H13.6981C16.7693 26.1218 18.6142 24.4102 18.6142 21.8614C18.6142 18.8755 16.4174 17.3399 13.5221 17.3399H6.36648V26.1218Z" fill="currentColor"></path><path d="M33.9661 12.4556C35.3258 9.90686 36.8615 8.58984 39.4955 8.58984C40.1513 8.58984 40.5512 8.6325 40.8978 8.7658V13.9912H40.7645C36.8561 13.5966 34.0461 15.6602 34.0461 20.4004V31.3791H28.0742V8.85645H33.8275V12.4556H33.9661Z" fill="currentColor"></path><path d="M57.7339 31.3859V28.7519H57.6006C56.065 30.8154 54.3054 31.9991 51.1488 31.9991C46.142 31.9991 43.332 28.7945 43.332 23.8784V8.86328H49.2613V22.8706C49.2613 25.5046 50.445 26.955 52.9937 26.955C55.8037 26.955 57.5153 24.8488 57.5153 21.8628V8.86328H63.4872V31.3859H57.7339Z" fill="currentColor"></path><path d="M65.8398 8.85578H68.9591V1.82812H74.7977V8.85045H78.6634V12.8015H74.7977V24.7453C74.7977 26.4143 75.7202 26.9848 77.0372 26.9848C77.7837 26.9848 78.7914 26.9421 78.7914 26.9421V31.3304C78.7914 31.3304 77.4317 31.4157 75.059 31.4157C72.1637 31.4157 68.9538 30.2747 68.9538 26.0144V12.8068H65.8398V8.85578Z" fill="currentColor"></path><path d="M81.8477 25.0273H88.2568V31.3938H81.8477V25.0273Z" fill="currentColor"></path></g><defs><clipPath id="clip0_2340_7731"><rect width="88.2568" height="31.9991" fill="currentColor"></rect></clipPath></defs></svg>